<?xml version="1.0" encoding="utf-8"?>
<!-- Generator: Adobe Illustrator 22.1.0, SVG Export Plug-In . SVG Version: 6.00 Build 0)  -->
<svg version="1.1" id="Capa_1" xmlns="http://www.w3.org/2000/svg" xmlns:xlink="http://www.w3.org/1999/xlink" x="0px" y="0px"
	 width="50px" height="50px" viewBox="0 0 50 50" style="enable-background:new 0 0 50 50;" xml:space="preserve">
<style type="text/css">
	.st0{fill:#ED2824;}
	.st1{fill:#FFFFFF;}
</style>
<circle class="st0" cx="25" cy="25" r="25"/>
<g>
	<g>
		<path class="st1" d="M34.1,33.3c0.5,0,0.9-0.2,1.3-0.5L29,26.4c-0.2,0.1-0.3,0.2-0.4,0.3c-0.5,0.4-0.9,0.6-1.2,0.8
			c-0.3,0.2-0.7,0.4-1.2,0.6c-0.5,0.2-1,0.3-1.4,0.3h0h0c-0.4,0-0.9-0.1-1.4-0.3c-0.5-0.2-0.9-0.4-1.2-0.6c-0.3-0.2-0.7-0.5-1.2-0.8
			c-0.1-0.1-0.3-0.2-0.4-0.3l-6.4,6.4c0.4,0.3,0.8,0.5,1.3,0.5H34.1z"/>
		<path class="st1" d="M14.8,22.3c-0.5-0.3-0.9-0.7-1.3-1.1V31l5.6-5.6C18,24.5,16.6,23.5,14.8,22.3z"/>
		<path class="st1" d="M34.8,22.3c-1.7,1.2-3.2,2.2-4.4,3l5.6,5.6v-9.7C35.7,21.6,35.3,22,34.8,22.3z"/>
		<path class="st1" d="M34.1,15.5H15.5c-0.6,0-1.1,0.2-1.5,0.7c-0.3,0.4-0.5,1-0.5,1.6c0,0.5,0.2,1.1,0.7,1.7c0.5,0.6,1,1.1,1.5,1.5
			c0.3,0.2,1.1,0.8,2.6,1.8c0.8,0.5,1.4,1,2,1.4c0.5,0.3,0.9,0.6,1.3,0.9c0,0,0.1,0.1,0.2,0.1c0.1,0.1,0.2,0.1,0.3,0.3
			c0.3,0.2,0.5,0.4,0.7,0.5c0.2,0.1,0.4,0.3,0.7,0.4c0.3,0.2,0.5,0.3,0.7,0.3c0.2,0.1,0.4,0.1,0.6,0.1h0h0c0.2,0,0.4,0,0.6-0.1
			c0.2-0.1,0.5-0.2,0.7-0.3c0.3-0.2,0.5-0.3,0.7-0.4c0.2-0.1,0.4-0.3,0.7-0.5c0.1-0.1,0.3-0.2,0.3-0.3c0.1-0.1,0.1-0.1,0.2-0.1
			c0.3-0.2,0.7-0.5,1.3-0.9c1-0.7,2.6-1.8,4.6-3.2c0.6-0.4,1.1-0.9,1.5-1.5c0.4-0.6,0.6-1.2,0.6-1.9c0-0.6-0.2-1-0.6-1.4
			C35.1,15.7,34.6,15.5,34.1,15.5z"/>
	</g>
</g>
</svg>
