<?xml version="1.0" encoding="utf-8"?>
<!-- Generator: Adobe Illustrator 22.1.0, SVG Export Plug-In . SVG Version: 6.00 Build 0)  -->
<svg version="1.1" id="Capa_1" xmlns="http://www.w3.org/2000/svg" xmlns:xlink="http://www.w3.org/1999/xlink" x="0px" y="0px"
	 width="50px" height="50px" viewBox="0 0 50 50" style="enable-background:new 0 0 50 50;" xml:space="preserve">
<style type="text/css">
	.st0{fill:#ED2824;}
	.st1{fill:#FFFFFF;}
</style>
<circle class="st0" cx="25" cy="25" r="25"/>
<g>
	<g>
		<path class="st1" d="M33.7,27.9c-0.9-0.9-2-0.9-2.9,0c-0.7,0.7-1.3,1.3-2,2c-0.2,0.2-0.3,0.2-0.6,0.1c-0.4-0.2-0.9-0.4-1.3-0.7
			c-2-1.2-3.6-2.8-5-4.6c-0.7-0.9-1.4-1.8-1.8-2.9c-0.1-0.2-0.1-0.4,0.1-0.5c0.7-0.7,1.3-1.3,2-2c0.9-0.9,0.9-2,0-2.9
			c-0.5-0.5-1.1-1.1-1.6-1.6c-0.5-0.5-1.1-1.1-1.6-1.6c-0.9-0.9-2-0.9-2.9,0c-0.7,0.7-1.3,1.4-2,2c-0.6,0.6-1,1.3-1,2.2
			c-0.1,1.4,0.2,2.7,0.7,4c1,2.7,2.5,5.1,4.3,7.2c2.5,3,5.4,5.3,8.9,7c1.6,0.8,3.2,1.3,4.9,1.4c1.2,0.1,2.3-0.2,3.1-1.2
			c0.6-0.6,1.2-1.2,1.8-1.8c0.9-0.9,0.9-2,0-2.9C35.9,30.1,34.8,29,33.7,27.9z"/>
	</g>
</g>
</svg>
