<?xml version="1.0" encoding="utf-8"?>
<!-- Generator: Adobe Illustrator 22.1.0, SVG Export Plug-In . SVG Version: 6.00 Build 0)  -->
<svg version="1.1" id="Layer_1" xmlns="http://www.w3.org/2000/svg" xmlns:xlink="http://www.w3.org/1999/xlink" x="0px" y="0px"
	 width="39.2px" height="39.2px" viewBox="0 0 39.2 39.2" style="enable-background:new 0 0 39.2 39.2;" xml:space="preserve">
<style type="text/css">
	.st0{fill-rule:evenodd;clip-rule:evenodd;fill:#7E7E7D;}
	.st1{fill:#FFFFFF;}
</style>
<ellipse transform="matrix(0.9239 -0.3827 0.3827 0.9239 -6.0111 8.9962)" class="st0" cx="19.6" cy="19.6" rx="19.5" ry="19.5"/>
<g>
	<g id="notifications-none">
		<path class="st1" d="M19.7,31c1.3,0,2.4-1.1,2.4-2.4h-4.7C17.3,29.9,18.4,31,19.7,31z M27.3,23.9v-6.5c0-3.7-2.5-6.7-5.9-7.5V9
			c0-1-0.8-1.8-1.8-1.8S17.9,8,17.9,9v0.8c-3.4,0.8-5.9,3.8-5.9,7.5v6.5l-2.4,2.4v1.2h20v-1.2L27.3,23.9z M25,25.1H14.4v-7.7
			c0-3,2.4-5.4,5.3-5.4s5.3,2.4,5.3,5.4V25.1z"/>
	</g>
</g>
</svg>
