<?xml version="1.0" encoding="utf-8"?>
<!-- Generator: Adobe Illustrator 22.1.0, SVG Export Plug-In . SVG Version: 6.00 Build 0)  -->
<svg version="1.1" id="Capa_1" xmlns="http://www.w3.org/2000/svg" xmlns:xlink="http://www.w3.org/1999/xlink" x="0px" y="0px"
	 width="35px" height="35px" viewBox="0 0 35 35" style="enable-background:new 0 0 35 35;" xml:space="preserve">
<style type="text/css">
	.st0{fill:#ED2824;}
</style>
<g id="Edit">
	<path class="st0" d="M21,7.3c-0.9-0.9-2.4-0.9-3.3,0l-0.8,0.8L5.2,19.8l0,0l-0.4,0.4c0,0-1.2,1.2-3.8,9.7C1,29.9,1,30,1,30
		c0,0.2-0.1,0.3-0.1,0.5c0,0.1-0.1,0.3-0.1,0.4c0,0.1-0.1,0.2-0.1,0.4c-0.1,0.3-0.2,0.6-0.3,0.9c-0.2,0.6-0.7,2.1-0.1,2.6
		c0.5,0.5,2,0.1,2.6-0.1c0.3-0.1,0.6-0.2,0.8-0.3c0.1,0,0.3-0.1,0.4-0.1c0.1,0,0.3-0.1,0.4-0.1C4.6,34.1,4.8,34,5,34
		c0,0,0.1,0,0.1,0c8.1-2.5,9.6-3.7,9.7-3.8c0,0,0,0,0,0c0,0,0,0,0,0l0.4-0.4l0,0l11.6-11.6l0,0l0.8-0.8c0.9-0.9,0.9-2.4,0-3.3
		L21,7.3z M13.5,28.6C13.5,28.6,13.4,28.6,13.5,28.6C13.4,28.7,13.4,28.7,13.5,28.6C13.4,28.7,13.4,28.7,13.5,28.6
		c-0.1,0.1-0.1,0.1-0.1,0.1c-0.4,0.2-1.5,0.8-4.3,1.8c-0.3,0.1-0.7,0.2-1,0.4L4.1,27c0.1-0.4,0.3-0.7,0.4-1c1-2.8,1.6-3.9,1.8-4.3
		c0,0,0,0,0,0c0,0,0,0,0,0c0,0,0,0,0,0c0,0,0,0,0,0l0.3-0.3l7.1,7.1L13.5,28.6z M34.3,7.3l-6.6-6.6c-0.9-0.9-2.4-0.9-3.3,0l-1.7,1.7
		c-0.9,0.9-0.9,2.4,0,3.3l6.6,6.6c0.9,0.9,2.4,0.9,3.3,0l1.7-1.7C35.2,9.7,35.2,8.3,34.3,7.3z"/>
</g>
</svg>
