<?xml version="1.0" encoding="utf-8"?>
<!-- Generator: Adobe Illustrator 22.1.0, SVG Export Plug-In . SVG Version: 6.00 Build 0)  -->
<svg version="1.1" id="Layer_1" xmlns="http://www.w3.org/2000/svg" xmlns:xlink="http://www.w3.org/1999/xlink" x="0px" y="0px"
	 width="198px" height="72px" viewBox="0 0 198 72" style="enable-background:new 0 0 198 72;" xml:space="preserve">
<style type="text/css">
	.st0{fill:#ED2824;}
	.st1{fill:#999999;}
	.st2{fill:#BBBBBB;}
	.st3{fill:#111111;}
</style>
<g>
	<g>
		<path class="st0" d="M103.8,2.7c1.8-1.5,4.1-2.4,6.5-2.7c0.7,0,1.5,0.1,2.2,0c1.1-0.1,2.2,0.2,3.2,0.5c3.9,1.2,7.2,4.1,9,7.7
			c0.4,0.7,0.6,1.4,0.6,2.1c-2,0-4,0-6,0c-1.2-2.2-3.5-3.9-6-4.3c-2.1-0.4-4.4,0.3-6,1.7c-1.5,1.3-2.4,3.2-2.6,5.1
			c-0.3,2.5,0.7,5.1,2.5,7c1.7,1.8,4.2,2.8,6.7,2.5c0.9-0.1,1.8-0.4,2.7-0.8c2.8-1.1,6-1.1,8.8-0.1c3.6,1.3,6.7,4,8.5,7.3
			c1.8,4,3.5,8.1,5.3,12c1,2.4,2.1,4.8,3.1,7.1c1.5,3.5,3,6.9,4.5,10.3c1.1,2.6-0.4,5.9-3,7c-5.1,2.1-10.1,4.3-15.2,6.4
			c-0.9,0.4-1.8,0.2-2.8,0.2c-1.7-0.2-3.4-1.3-4.2-2.9c-2.8-6.2-5.4-12.6-8.1-18.8c-4.4-10.3-9.1-20.6-13.6-30.9
			c-1.3-3.1-1.6-6.7-0.7-9.9C100.1,6.8,101.7,4.4,103.8,2.7z M118.1,33.9c0,4.7,0,9.4,0,14.1c2.6,0,5.3,0,7.9,0
			c1.6,0,3.2-0.3,4.4-1.4c1.1-1,1.4-2.7,0.8-4.1c-0.4-0.9-1.2-1.5-2.1-1.8c0.6-0.4,1.2-0.9,1.5-1.5c0.6-1.3,0.4-2.9-0.7-3.9
			c-1.2-1-2.8-1.3-4.3-1.3C123,33.9,120.6,33.9,118.1,33.9z"/>
	</g>
	<path class="st0" d="M122.8,37.3c0.8,0,1.7-0.1,2.5,0.1c0.9,0.2,0.9,1.8,0,1.9c-0.8,0.1-1.7,0-2.5,0.1
		C122.8,38.6,122.8,38,122.8,37.3z"/>
	<path class="st0" d="M122.8,42.5c1,0,2-0.1,3,0c1.1,0.1,1.1,1.9,0,2.1c-1,0.1-2,0-3,0.1C122.8,44,122.8,43.2,122.8,42.5z"/>
</g>
<g>
	<path class="st1" d="M107.9,9.1c1.1-1.1,2.6-1.7,4.1-1.8c2.3-0.1,4.6,1,5.8,3c-2.3,0-4.7,0-7,0c-0.1,2.3,0,4.7,0,7
		c2.3,0.1,4.7,0,7,0c-1,1.6-2.7,2.7-4.6,2.9c-1.7,0.2-3.4-0.2-4.8-1.1c-1.7-1.2-2.8-3.3-2.8-5.4C105.8,12.1,106.6,10.3,107.9,9.1z"
		/>
</g>
<g>
	<path class="st2" d="M110.9,10.4c2.3,0,4.7,0,7,0c0.5,0,1,0,1.5,0c2,0,4,0,6,0c5.6,0,11.2,0,16.8,0c0,2.4,0.1,4.7,0,7.1
		c-8.1,0-16.2,0-24.3,0c-2.3-0.1-4.7,0-7,0C110.8,15.1,110.8,12.7,110.9,10.4z"/>
</g>
<g>
	<g>
		<path class="st3" d="M0,34c2.2-0.1,4.5,0,6.7,0c1.8,0,3.7,0.4,5.1,1.6c2.3,2.1,2,6.2-0.6,7.9c-1.9,1.3-4.2,1.1-6.3,1.1
			c0,1.2,0,2.3,0,3.5c-1.6,0-3.2,0-4.8,0V34z M4.8,37.6c0,1.1,0,2.2,0,3.3c0.9-0.1,1.9,0.1,2.8-0.2c1.2-0.5,1.2-2.6-0.1-3
			C6.7,37.5,5.7,37.6,4.8,37.6z"/>
	</g>
	<path class="st3" d="M14.8,33.9c3.8,0,7.7,0,11.5,0c0,1.2,0,2.4,0,3.6c-2,0-4.1,0-6.1,0c-0.2,0-0.5,0-0.7,0.1c0,0.5,0,1.1,0,1.6
		c2,0,4,0,6,0c0,1.1,0,2.3,0,3.4c-2,0-4,0-6,0c0,0.6,0,1.2,0,1.9c2.4,0,4.7,0,7.1,0c0,1.2,0,2.4,0,3.6c-3.9,0-7.9,0-11.8,0
		C14.8,43.3,14.8,38.6,14.8,33.9z"/>
	<path class="st3" d="M28.5,33.9c1.6,0,3.2,0,4.8,0c0,1.8,0,3.5,0,5.3c0.5,0,1,0,1.5,0c1-1.8,2-3.5,3-5.2c1.7,0,3.3,0,5,0
		c-1.4,2.3-2.8,4.5-4.2,6.9c1.3,2.4,2.8,4.8,4.2,7.2c-1.8,0-3.6,0-5.4,0c-0.9-1.7-1.8-3.4-2.7-5.1c-0.4,0-0.9,0-1.3,0
		c0,1.7,0,3.4,0,5.1c-1.6,0-3.2,0-4.8,0C28.5,43.3,28.5,38.6,28.5,33.9z"/>
	<path class="st3" d="M45.9,33.9c4,0,8,0,12,0c0,4.7,0,9.4,0,14.1c-1.6,0-3.1,0-4.7,0c0-3.5,0-6.9,0-10.4c-1.1,0-2.2,0-3.2,0
		c0,2.3-0.1,4.7-0.6,7c-0.3,1.3-1,2.6-2.2,3.3c-1.3,0.6-2.7,0.5-4.1,0.2c0.1-1.3,0.2-2.5,0.3-3.8c0.5,0.1,1.2,0.1,1.6-0.4
		c0.7-0.9,0.7-2,0.8-3C45.8,38.5,45.8,36.2,45.9,33.9z"/>
	<g>
		<path class="st3" d="M65,33.9c1.6-0.1,3.2,0,4.7,0c2.1,4.7,4.1,9.4,6.2,14.1c-1.6,0-3.3,0-4.9,0c-0.3-0.8-0.6-1.6-0.9-2.5
			c-1.8,0-3.6,0-5.4,0c-0.3,0.8-0.6,1.6-0.9,2.4c-1.6,0-3.2,0-4.9,0C60.8,43.3,62.9,38.7,65,33.9z M67.3,38.7
			c-0.5,1.1-0.9,2.3-1.3,3.4c0.9,0,1.8,0,2.7,0c-0.4-1-0.8-2-1.2-3C67.5,39,67.4,38.8,67.3,38.7z"/>
	</g>
	<path class="st3" d="M76.7,33.9c1.3,0,2.6,0,3.9,0c1.5,2.5,3.1,5,4.6,7.5c1.5-2.5,3-5,4.5-7.5c1.3,0,2.6,0,3.9,0
		c0,4.7,0,9.4,0,14.1c-1.4,0-2.9,0-4.3,0c-0.1-2.1,0-4.2-0.1-6.4c-1,1.7-2,3.4-3.1,5.1c-0.7,0-1.4,0-2.1,0c-1-1.6-2-3.3-3.1-4.9
		c0,2,0,4.1,0,6.1c-1.5,0-2.9,0-4.4,0C76.7,43.3,76.7,38.6,76.7,33.9z"/>
	<g>
		<path class="st3" d="M100.6,33.9c1.6-0.1,3.2,0,4.7,0c2.1,4.7,4.1,9.4,6.2,14.1c-1.6,0-3.3,0-4.9,0c-0.3-0.8-0.6-1.6-0.9-2.4
			c-1.8,0-3.6,0-5.4,0c-0.3,0.8-0.6,1.6-0.9,2.4c-1.6,0-3.2,0-4.9,0C96.4,43.3,98.5,38.6,100.6,33.9z M102.9,38.7
			c-0.5,1.2-0.9,2.3-1.4,3.5c0.9,0,1.8,0,2.7,0C103.8,41,103.4,39.8,102.9,38.7z"/>
	</g>
	<g>
		<path class="st3" d="M139.3,33.9c2.3,0,4.6,0,6.8,0c1.7,0,3.5,0.4,4.8,1.5c2.2,1.8,2.3,5.6,0.1,7.5c-0.8,0.8-1.9,1.2-3,1.4
			c-1.3,0.3-2.7,0.2-4,0.2c0,1.1,0,2.3,0,3.4c-0.5,0.2-1.1,0-1.7,0.1c-1-2.4-2.1-4.7-3.1-7.1C139.4,38.6,139.3,36.3,139.3,33.9z
			 M144.1,37.6c0,1.1,0,2.2,0,3.3c0.7,0,1.3,0,2,0c0.5,0,1.1-0.2,1.4-0.7c0.5-0.8,0.3-2.2-0.7-2.5C146,37.5,145,37.6,144.1,37.6z"/>
	</g>
	<path class="st3" d="M152.5,33.9c1.7,0,3.4,0,5,0c0.9,2,1.9,4,2.8,5.9c1-2,1.9-4,2.9-5.9c1.5,0,3.1,0,4.6,0
		c-1.9,3.6-3.9,7.2-5.8,10.8c-0.8,1.5-2,2.8-3.7,3.4c-1.5,0.6-3.2,0.4-4.7-0.2c0.4-1.1,0.7-2.3,1.1-3.4c1,0.3,2.4,0.4,3.1-0.6
		C156.2,40.6,154.4,37.2,152.5,33.9z"/>
	<path class="st3" d="M168.6,33.9c1.6,0,3.2,0,4.8,0c0,1.8,0,3.5,0,5.3c0.5,0,1,0,1.5,0c1-1.8,2-3.5,3-5.3c1.7,0,3.3,0,5,0
		c-1.4,2.3-2.8,4.6-4.2,6.8c1.4,2.4,2.8,4.8,4.2,7.3c-1.8,0-3.6,0-5.4,0c-0.9-1.7-1.8-3.4-2.7-5.1c-0.4,0-0.9,0-1.3,0
		c0,1.7,0,3.4,0,5.1c-1.6,0-3.2,0-4.8,0C168.6,43.3,168.6,38.6,168.6,33.9z"/>
	<path class="st3" d="M183.9,33.9c1.6,0,3.1,0,4.7,0c0,2.1,0,4.2,0,6.4c0,0.3,0,0.6,0.1,0.8c1.6-2.4,3.2-4.8,4.8-7.2
		c1.5,0,3,0,4.5,0c0.1,4.3,0,8.6,0,12.9c0,0.4,0,0.8-0.1,1.2c-1.5,0-3.1,0-4.6,0c-0.1-2.4,0-4.9,0-7.3c-1.6,2.4-3.2,4.9-4.9,7.3
		c-1.5,0-3,0-4.5,0C183.9,43.3,183.9,38.6,183.9,33.9z"/>
</g>
</svg>
