<?xml version="1.0" encoding="utf-8"?>
<!-- Generator: Adobe Illustrator 22.1.0, SVG Export Plug-In . SVG Version: 6.00 Build 0)  -->
<svg version="1.1" id="Capa_1" xmlns="http://www.w3.org/2000/svg" xmlns:xlink="http://www.w3.org/1999/xlink" x="0px" y="0px"
	 width="37px" height="37px" viewBox="0 0 37 37" style="enable-background:new 0 0 37 37;" xml:space="preserve">
<style type="text/css">
	.st0{fill:#FFB400;}
</style>
<g>
	<g>
		<ellipse class="st0" cx="13.5" cy="15.4" rx="1.6" ry="1.5"/>
		<ellipse class="st0" cx="23.5" cy="21.6" rx="1.6" ry="1.5"/>
		<path class="st0" d="M36.5,20.5L36,19.8c-0.6-0.8-0.6-2,0-2.8l0.6-0.8c0.9-1.2,0.5-2.8-0.9-3.5l-0.9-0.4c-0.9-0.5-1.4-1.5-1.3-2.5
			l0.2-0.9C33.9,7.3,32.8,6,31.4,6l-1,0c-1.1,0-2-0.7-2.3-1.7l-0.3-0.9c-0.4-1.4-2-2.1-3.3-1.5l-0.9,0.4c-1,0.4-2.1,0.2-2.8-0.6
			l-0.6-0.7c-1-1.1-2.7-1.1-3.7,0l-0.6,0.7c-0.7,0.8-1.8,1-2.8,0.6l-0.9-0.4C10.8,1.3,9.3,2,8.9,3.4L8.6,4.3C8.3,5.3,7.4,6,6.4,6.1
			l-1,0.1C3.9,6.2,2.9,7.6,3.2,9l0.2,0.9c0.2,1-0.3,2-1.2,2.5l-0.8,0.5c-1.3,0.7-1.7,2.4-0.8,3.5L1,17.2c0.6,0.8,0.6,2,0,2.8
			l-0.6,0.8c-0.9,1.2-0.5,2.8,0.9,3.5l0.9,0.4c0.9,0.5,1.4,1.5,1.3,2.5l-0.2,0.9C3.1,29.7,4.2,31,5.6,31l1,0c1.1,0,2,0.7,2.3,1.7
			l0.3,0.9c0.4,1.4,2,2.1,3.3,1.5l0.9-0.4c1-0.4,2.1-0.2,2.8,0.6l0.6,0.7c1,1.1,2.7,1.1,3.7,0l0.6-0.7c0.7-0.8,1.8-1,2.8-0.6
			l0.9,0.4c1.4,0.6,2.9-0.2,3.3-1.6l0.3-0.9c0.3-1,1.2-1.7,2.2-1.8l1-0.1c1.5-0.1,2.5-1.4,2.3-2.8l-0.2-0.9c-0.2-1,0.3-2,1.2-2.5
			l0.8-0.5C37,23.4,37.4,21.7,36.5,20.5z M9.7,15.4c0-2.1,1.7-3.7,3.8-3.7s3.8,1.7,3.8,3.7s-1.7,3.7-3.8,3.7S9.7,17.4,9.7,15.4z
			 M14.2,25c-0.3,0.4-0.9,0.4-1.3,0.1l0,0c-0.4-0.3-0.4-0.9-0.1-1.3l10-11.8c0.3-0.4,0.9-0.4,1.3-0.1c0.4,0.3,0.4,0.9,0.1,1.3
			L14.2,25z M23.5,25.4c-2.1,0-3.8-1.7-3.8-3.7s1.7-3.7,3.8-3.7s3.8,1.7,3.8,3.7S25.6,25.4,23.5,25.4z"/>
	</g>
</g>
</svg>
