<?xml version="1.0" encoding="utf-8"?>
<!-- Generator: Adobe Illustrator 22.1.0, SVG Export Plug-In . SVG Version: 6.00 Build 0)  -->
<svg version="1.1" id="Layer_1" xmlns="http://www.w3.org/2000/svg" xmlns:xlink="http://www.w3.org/1999/xlink" x="0px" y="0px"
	 width="17px" height="15px" viewBox="0 0 17 15" style="enable-background:new 0 0 17 15;" xml:space="preserve">
<style type="text/css">
	.st0{fill:#FFFFFF;}
</style>
<g>
	<g>
		<path class="st0" d="M16.7,6.8l-6.1-6.5C10.4,0.1,10.2,0,9.9,0C9.7,0,9.4,0.1,9.3,0.3L8.7,0.9C8.5,1.1,8.4,1.3,8.4,1.6
			c0,0.3,0.1,0.5,0.3,0.7l3.6,3.8H0.9C0.4,6.1,0,6.5,0,7.1v0.8c0,0.5,0.4,1,0.9,1h11.4l-3.6,3.8c-0.2,0.2-0.3,0.4-0.3,0.7
			c0,0.3,0.1,0.5,0.3,0.7l0.6,0.6C9.4,14.9,9.7,15,9.9,15c0.2,0,0.5-0.1,0.7-0.3l6.1-6.5C16.9,8,17,7.8,17,7.5
			C17,7.2,16.9,7,16.7,6.8z"/>
	</g>
</g>
</svg>
