<?xml version="1.0" encoding="utf-8"?>
<!-- Generator: Adobe Illustrator 22.1.0, SVG Export Plug-In . SVG Version: 6.00 Build 0)  -->
<svg version="1.1" id="Capa_1" xmlns="http://www.w3.org/2000/svg" xmlns:xlink="http://www.w3.org/1999/xlink" x="0px" y="0px"
	 width="38px" height="47px" viewBox="0 0 38 47" style="enable-background:new 0 0 38 47;" xml:space="preserve">
<style type="text/css">
	.st0{fill:#ED2824;}
</style>
<g>
	<g>
		<path class="st0" d="M19,0C8.5,0,0,8.5,0,18.8c0,1.2,0.1,2.4,0.3,3.5c0,0.1,0,0.3,0.1,0.6c0.3,1.3,0.7,2.5,1.3,3.7
			c2,4.8,6.5,12.1,16.4,20c0.2,0.2,0.5,0.3,0.8,0.3c0.3,0,0.6-0.1,0.8-0.3c9.9-7.9,14.4-15.2,16.4-20c0.6-1.2,1-2.4,1.3-3.7
			c0.1-0.4,0.1-0.6,0.1-0.6c0.2-1.2,0.3-2.4,0.3-3.5C38,8.5,29.5,0,19,0z M35,21.9C35,21.9,35,22,35,21.9c0,0.1,0,0.3-0.1,0.5
			c0,0,0,0,0,0c-0.2,1.1-0.6,2.2-1.1,3.2c0,0,0,0,0,0C31.9,30,27.8,36.7,19,44C10.1,36.7,6.1,30,4.2,25.7c0,0,0,0,0,0
			c-0.5-1-0.8-2.1-1.1-3.2c0,0,0,0,0,0C3,22.2,3,22,3,22c0,0,0,0,0-0.1c-0.2-1-0.3-2-0.3-3.1C2.7,9.9,10,2.7,19,2.7
			s16.3,7.3,16.3,16.2C35.3,19.9,35.2,20.9,35,21.9z"/>
		<path class="st0" d="M19,7.1c-6.6,0-12.1,5.4-12.1,12S12.3,31,19,31S31,25.6,31,19S25.6,7.1,19,7.1z M19,28.3
			c-5.2,0-9.4-4.2-9.4-9.3s4.2-9.3,9.4-9.3s9.4,4.2,9.4,9.3S24.2,28.3,19,28.3z"/>
	</g>
</g>
</svg>
