<?xml version="1.0" encoding="utf-8"?>
<!-- Generator: Adobe Illustrator 22.1.0, SVG Export Plug-In . SVG Version: 6.00 Build 0)  -->
<svg version="1.1" id="Capa_1" xmlns="http://www.w3.org/2000/svg" xmlns:xlink="http://www.w3.org/1999/xlink" x="0px" y="0px"
	 width="42px" height="43px" viewBox="0 0 42 43" style="enable-background:new 0 0 42 43;" xml:space="preserve">
<style type="text/css">
	.st0{fill:#ED2824;}
</style>
<g>
	<g>
		<path class="st0" d="M40,22.1c-0.2-0.4-0.2-0.8,0-1.1l1.6-3.3c0.9-1.8,0.2-4-1.6-5L36.7,11c-0.4-0.2-0.6-0.5-0.7-0.9l-0.6-3.6
			c-0.4-2-2.2-3.3-4.3-3.1l-3.7,0.5C27,4,26.6,3.9,26.3,3.6l-2.7-2.5c-1.5-1.4-3.8-1.4-5.3,0l-2.7,2.5C15.4,3.9,15,4,14.6,3.9
			l-3.7-0.5C8.9,3.1,7,4.5,6.6,6.5L6,10.1c-0.1,0.4-0.3,0.7-0.7,0.9L2,12.7c-1.8,1-2.5,3.1-1.6,5L2,20.9c0.2,0.4,0.2,0.8,0,1.1
			l-1.6,3.3c-0.9,1.8-0.2,4,1.6,5L5.3,32c0.4,0.2,0.6,0.5,0.7,0.9l0.6,3.6c0.3,1.8,1.9,3.1,3.7,3.1c0.2,0,0.4,0,0.5,0l3.7-0.5
			c0.4-0.1,0.8,0.1,1.1,0.3l2.7,2.5C19.1,42.6,20,43,21,43c1,0,1.9-0.4,2.7-1.1l2.7-2.5c0.3-0.3,0.7-0.4,1.1-0.3l3.7,0.5
			c2,0.3,3.9-1.1,4.3-3.1l0.6-3.6c0.1-0.4,0.3-0.7,0.7-0.9l3.3-1.7c1.8-1,2.5-3.1,1.6-5L40,22.1z M38.8,28.1l-3.3,1.7
			c-1,0.5-1.8,1.5-2,2.7l-0.6,3.6c-0.1,0.7-0.8,1.1-1.5,1l-3.7-0.5c-1.2-0.2-2.3,0.2-3.2,1l-2.7,2.5c-0.5,0.5-1.3,0.5-1.8,0
			l-2.7-2.5c-0.7-0.7-1.7-1.1-2.6-1.1c-0.2,0-0.4,0-0.5,0l-3.7,0.5c-0.7,0.1-1.3-0.4-1.5-1l-0.6-3.6c-0.2-1.1-0.9-2.1-2-2.7
			l-3.3-1.7c-0.6-0.3-0.9-1.1-0.6-1.7l1.6-3.3c0.5-1,0.5-2.2,0-3.3l-1.6-3.3c-0.3-0.6-0.1-1.4,0.6-1.7l3.3-1.7c1-0.5,1.8-1.5,2-2.7
			l0.6-3.6c0.1-0.7,0.8-1.1,1.5-1l3.7,0.5c1.2,0.2,2.3-0.2,3.2-1l2.7-2.5c0.5-0.5,1.3-0.5,1.8,0l2.7,2.5c0.9,0.8,2,1.2,3.2,1
			l3.7-0.5c0.7-0.1,1.3,0.4,1.5,1l0.6,3.6c0.2,1.1,0.9,2.1,2,2.7l3.3,1.7c0.6,0.3,0.9,1.1,0.6,1.7l-1.6,3.3c-0.5,1-0.5,2.2,0,3.3
			l1.6,3.3C39.6,27,39.4,27.8,38.8,28.1z"/>
	</g>
</g>
<g>
	<g>
		<path class="st0" d="M30.2,12.4c-0.5-0.5-1.3-0.5-1.8,0L11.8,28.8c-0.5,0.5-0.5,1.3,0,1.8c0.2,0.2,0.6,0.4,0.9,0.4
			s0.6-0.1,0.9-0.4l16.7-16.4C30.7,13.7,30.7,12.9,30.2,12.4z"/>
	</g>
</g>
<g>
	<g>
		<path class="st0" d="M16,10.3c-2.6,0-4.6,2-4.6,4.5s2.1,4.5,4.6,4.5s4.6-2,4.6-4.5S18.5,10.3,16,10.3z M16,17
			c-1.2,0-2.1-0.9-2.1-2.1c0-1.1,0.9-2.1,2.1-2.1s2.1,0.9,2.1,2.1C18.1,16,17.1,17,16,17z"/>
	</g>
</g>
<g>
	<g>
		<path class="st0" d="M26,23.6c-2.6,0-4.6,2-4.6,4.5s2.1,4.5,4.6,4.5c2.6,0,4.6-2,4.6-4.5S28.6,23.6,26,23.6z M26,30.2
			c-1.2,0-2.1-0.9-2.1-2.1c0-1.1,0.9-2.1,2.1-2.1c1.2,0,2.1,0.9,2.1,2.1C28.2,29.3,27.2,30.2,26,30.2z"/>
	</g>
</g>
</svg>
