<?xml version="1.0" encoding="utf-8"?>
<!-- Generator: Adobe Illustrator 22.1.0, SVG Export Plug-In . SVG Version: 6.00 Build 0)  -->
<svg version="1.1" id="Capa_1" xmlns="http://www.w3.org/2000/svg" xmlns:xlink="http://www.w3.org/1999/xlink" x="0px" y="0px"
	 width="41px" height="36px" viewBox="0 0 41 36" style="enable-background:new 0 0 41 36;" xml:space="preserve">
<style type="text/css">
	.st0{fill:#ED2824;}
</style>
<g>
	<g>
		<path class="st0" d="M36.2,7.2V0H4.8C2.2,0,0,2.2,0,4.8V30c0,3.3,2.7,6,6,6h35V7.2H36.2z M4.8,2.4h29v4.8h-29
			c-1.3,0-2.4-1.1-2.4-2.4S3.5,2.4,4.8,2.4z M38.6,26.4h-6c-2,0-3.6-1.6-3.6-3.6s1.6-3.6,3.6-3.6h6V26.4z M38.6,16.8h-6
			c-3.3,0-6,2.7-6,6s2.7,6,6,6h6v4.8H6c-2,0-3.6-1.6-3.6-3.6V9c0.7,0.4,1.5,0.6,2.4,0.6c1.8,0,31.2,0,33.8,0V16.8z"/>
	</g>
</g>
<g>
	<g>
		<rect x="31.4" y="21.6" class="st0" width="2.4" height="2.4"/>
	</g>
</g>
</svg>
