<?xml version="1.0" encoding="utf-8"?>
<!-- Generator: Adobe Illustrator 22.1.0, SVG Export Plug-In . SVG Version: 6.00 Build 0)  -->
<svg version="1.1" id="Capa_1" xmlns="http://www.w3.org/2000/svg" xmlns:xlink="http://www.w3.org/1999/xlink" x="0px" y="0px"
	 width="33px" height="39px" viewBox="0 0 33 39" style="enable-background:new 0 0 33 39;" xml:space="preserve">
<style type="text/css">
	.st0{fill:#ED2824;}
</style>
<path class="st0" d="M31.6,10.2h-5.9c0.2-0.2,0.3-0.6,0.3-0.9c0-0.4-0.2-0.7-0.4-1l-8-7.9c-0.6-0.6-1.5-0.6-2,0l-8,7.9
	c-0.3,0.3-0.4,0.6-0.4,1c0,0.3,0.1,0.6,0.3,0.9H1.4c-0.8,0-1.4,0.6-1.4,1.4v11.1v14.8C0,38.4,0.7,39,1.4,39h30.1
	c0.8,0,1.4-0.6,1.4-1.4V22.7V11.6C33,10.8,32.4,10.2,31.6,10.2z M2.9,13h7.4l2.8,2.7H9c-0.8,0-1.4,0.6-1.4,1.4
	c0,0.8,0.7,1.4,1.4,1.4h15c0.8,0,1.4-0.6,1.4-1.4c0-0.8-0.7-1.4-1.4-1.4h-4l2.8-2.7h7.4v8.3H2.9V13z"/>
</svg>
