<svg width="6" height="11" viewBox="0 0 6 11" fill="none" xmlns="http://www.w3.org/2000/svg">
<path d="M5.96108 6.18344C5.94875 6.21408 5.9294 6.24063 5.91085 6.26876C5.89718 6.28958 5.89053 6.31326 5.87337 6.33242C5.86745 6.33902 5.85897 6.34115 5.85274 6.34732C5.84609 6.35409 5.84341 6.36306 5.83627 6.36953L0.836265 10.8695C0.740562 10.9555 0.620933 10.9975 0.501793 10.9975C0.365074 10.9975 0.228843 10.9418 0.130211 10.8324C-0.0543597 10.6264 -0.0377582 10.3109 0.16732 10.1254L4.75393 5.99746L0.16732 1.86953C-0.0377585 1.68399 -0.0543601 1.36856 0.13021 1.1625C0.315269 0.9584 0.631187 0.941798 0.836265 1.12539L5.83626 5.62539C5.8431 5.63156 5.8456 5.64016 5.85201 5.64663C5.85848 5.6531 5.86715 5.6556 5.87337 5.6625C5.89053 5.68167 5.89718 5.70535 5.91085 5.72616C5.9294 5.7543 5.94875 5.78085 5.96108 5.81149C5.97323 5.84164 5.97799 5.87204 5.98403 5.90347C5.99013 5.93508 5.99734 5.96536 5.99728 5.99746C5.99734 6.02957 5.99013 6.05984 5.98403 6.09146C5.97799 6.12289 5.97323 6.15329 5.96108 6.18344Z" fill="#404151"/>
</svg>
