<svg width="12" height="20" viewBox="0 0 12 20" fill="none" xmlns="http://www.w3.org/2000/svg">
<path d="M0.0724745 10.3716C0.0971336 10.4328 0.135832 10.4859 0.172942 10.5422C0.200287 10.5839 0.213593 10.6312 0.247896 10.6695C0.259738 10.6827 0.276707 10.687 0.289158 10.6993C0.302464 10.7129 0.307836 10.7308 0.322118 10.7438L10.3225 19.7441C10.5139 19.916 10.7532 20 10.9915 20C11.2649 20 11.5374 19.8887 11.7347 19.6699C12.1038 19.2578 12.0706 18.6269 11.6605 18.2558L2.48688 9.9996L11.6605 1.74341C12.0706 1.3723 12.1038 0.741414 11.7347 0.329288C11.3646 -0.0789313 10.7327 -0.112136 10.3225 0.255066L0.322119 9.25543C0.308446 9.26776 0.303441 9.28497 0.290623 9.29791C0.277683 9.31085 0.260348 9.31586 0.247896 9.32965C0.213593 9.36798 0.200287 9.41535 0.172942 9.45697C0.135832 9.51325 0.0971336 9.56635 0.0724745 9.62764C0.0481815 9.68794 0.03866 9.74873 0.0265741 9.8116C0.0143661 9.87484 -3.8147e-05 9.93539 8.39233e-05 9.9996C-3.8147e-05 10.0638 0.0143671 10.1244 0.0265741 10.1876C0.03866 10.2505 0.0481815 10.3113 0.0724745 10.3716Z" fill="url(#paint0_linear)"/>
<defs>
<linearGradient id="paint0_linear" x1="5.99565" y1="0" x2="5.99565" y2="20" gradientUnits="userSpaceOnUse">
<stop stop-color="#FF702F"/>
<stop offset="1" stop-color="#F54428"/>
</linearGradient>
</defs>
</svg>
