<?xml version="1.0" encoding="utf-8"?>
<!-- Generator: Adobe Illustrator 22.1.0, SVG Export Plug-In . SVG Version: 6.00 Build 0)  -->
<svg version="1.1" id="Layer_1" xmlns="http://www.w3.org/2000/svg" xmlns:xlink="http://www.w3.org/1999/xlink" x="0px" y="0px"
	 width="29px" height="35.9px" viewBox="0 0 29 35.9" style="enable-background:new 0 0 29 35.9;" xml:space="preserve">
<style type="text/css">
	.st0{fill:#ED2824;}
</style>
<g id="_x23_ed2824ff">
	<path class="st0" d="M2.8,0h13c0.8,0.1,1.5,0.4,2,1c0.5,0.5,0.8,1.3,0.8,2c0,4.2,0,8.3,0,12.5c-0.3-0.2-0.6-0.4-0.9-0.7
		c-1-0.8-2.1-1.6-3-2.5c-0.2-0.3-0.5-0.6-0.8-0.7c-0.8-0.2-1.7-0.4-2.6-0.3c-0.7,0-1.3,0.2-1.9,0.3c-0.4,0.2-0.8,0.5-1.1,0.8
		c-0.3,0.4-0.6,0.8-0.7,1.3c-0.1,0.4-0.2,0.8-0.2,1.2c0,0.5,0.1,1,0.2,1.5c0.1,0.3,0.3,0.6,0.5,0.8c1.1,0.9,2.2,1.9,3.2,2.8
		c0.7,0.6,1.3,1.1,2,1.7c0.4,0.6,0.8,1.1,1.1,1.7c0.6,1,1.2,2,1.7,3c0.2,0.4,0.3,0.8,0.4,1.2c-0.3,0.1-0.6,0.2-1,0.2
		c-4.2,0-8.4,0-12.6,0c-0.5,0-0.9-0.1-1.3-0.3C0.7,27.1,0,26,0,25V2.8C0.1,2.2,0.3,1.5,0.7,1C1.2,0.4,2,0,2.8,0 M4,4
		c0,0.7,0,1.3,0,2c3.5,0,7,0,10.5,0c0-0.7,0-1.3,0-2C11.1,4,7.5,4,4,4z"/>
	<path class="st0" d="M20.8,6.7c2.7,2.9,5.3,5.8,7.9,8.7c0.1,0.1,0.1,0.2,0.1,0.3c0.3,1.8,0.1,3.6-0.3,5.4c-0.5,2.2-1.4,4.4-2.4,6.4
		c-2.7,0-5.3,0-8,0C18,27,17.8,26.5,17.6,26c-0.7-1.2-1.4-2.4-2.1-3.5c-0.3-0.5-0.6-0.9-1-1.4c-0.1-0.1-0.1-0.2-0.2-0.3
		c-1.7-1.5-3.5-3-5.2-4.6C9,16.1,9,16,9,15.8c-0.1-0.6-0.2-1.2,0.1-1.8c0.2-0.5,0.6-0.9,1.1-1.1c1-0.2,1.9-0.2,2.9,0
		c0.1,0,0.2,0,0.3,0.1c0.4,0.5,0.9,0.9,1.3,1.3c1,0.8,2,1.6,3,2.4c0.4,0.3,0.9,0.5,1.4,0.6c0.3,0,0.7-0.1,0.8-0.4
		c0.2-0.4,0.3-0.8,0.3-1.2C20.3,12.7,20.6,9.7,20.8,6.7z"/>
	<path class="st0" d="M16.5,29.1c4.1,0,8.1,0,12.2,0c0,2.3,0,4.5,0,6.8c-4.1,0-8.1,0-12.2,0C16.5,33.6,16.5,31.3,16.5,29.1z"/>
</g>
</svg>
