<?xml version="1.0" encoding="utf-8"?>
<!-- Generator: Adobe Illustrator 22.1.0, SVG Export Plug-In . SVG Version: 6.00 Build 0)  -->
<svg version="1.1" id="Capa_1" xmlns="http://www.w3.org/2000/svg" xmlns:xlink="http://www.w3.org/1999/xlink" x="0px" y="0px"
	 width="43px" height="44px" viewBox="0 0 43 44" style="enable-background:new 0 0 43 44;" xml:space="preserve">
<style type="text/css">
	.st0{fill:#ED2824;}
</style>
<g>
	<path class="st0" d="M41.7,29.9c0.9-1.2,1.3-2.4,1.3-3.7c-0.1-1.4-0.7-2.5-1.2-3.2c0.6-1.5,0.8-3.8-1.2-5.7c-1.5-1.3-4-1.9-7.4-1.8
		c-2.4,0.1-4.5,0.6-4.6,0.6h0c-0.5,0.1-1,0.2-1.5,0.3c0-0.6,0.1-2.1,1.2-5.3c1.3-3.9,1.2-6.9-0.2-8.9c-1.5-2.1-4-2.3-4.7-2.3
		c-0.7,0-1.3,0.3-1.8,0.8c-1,1.2-0.9,3.4-0.8,4.4c-1.2,3.3-4.6,11.2-7.5,13.5c-0.1,0-0.1,0.1-0.1,0.1c-0.9,0.9-1.4,1.9-1.8,2.7
		c-0.5-0.3-1.2-0.5-1.8-0.5H3.8C1.7,21,0,22.8,0,24.9v15c0,2.1,1.7,3.8,3.8,3.8h5.6c0.8,0,1.6-0.3,2.2-0.7l2.2,0.3
		c0.3,0,6.3,0.8,12.3,0.7c1.1,0.1,2.1,0.1,3.1,0.1c1.7,0,3.1-0.1,4.3-0.4c2.8-0.6,4.8-1.8,5.7-3.6c0.7-1.3,0.7-2.7,0.6-3.5
		c1.8-1.7,2.2-3.5,2.1-4.8C42.1,31,41.9,30.4,41.7,29.9z M3.8,41.2c-0.7,0-1.4-0.6-1.4-1.3v-15c0-0.7,0.6-1.3,1.4-1.3h5.6
		c0.7,0,1.4,0.6,1.4,1.3v15c0,0.7-0.6,1.3-1.4,1.3L3.8,41.2L3.8,41.2z M39.3,28.8c-0.4,0.4-0.5,1-0.2,1.5c0,0,0.4,0.7,0.4,1.5
		c0.1,1.2-0.5,2.3-1.7,3.2c-0.4,0.3-0.6,0.9-0.4,1.4c0,0,0.4,1.2-0.2,2.4c-0.6,1.1-2,1.9-4.1,2.3c-1.7,0.4-3.9,0.4-6.7,0.2
		c0,0-0.1,0-0.1,0c-5.9,0.1-12-0.6-12-0.7h0l-0.9-0.1c0.1-0.3,0.1-0.5,0.1-0.8v-15c0-0.4-0.1-0.8-0.2-1.1c0.2-0.6,0.6-2,1.7-3.2
		c4.2-3.3,8.2-14.3,8.4-14.8c0.1-0.2,0.1-0.4,0.1-0.6c-0.2-1-0.1-2.3,0.1-2.7c0.5,0,1.8,0.1,2.6,1.2C27,5,27,7.3,25.9,10.4
		c-1.6,4.7-1.7,7.1-0.5,8.2c0.6,0.5,1.4,0.6,2,0.4c0.6-0.1,1.1-0.2,1.6-0.3c0,0,0.1,0,0.1,0c2.8-0.6,7.9-1,9.7,0.6
		c1.5,1.4,0.4,3.2,0.3,3.4c-0.3,0.5-0.2,1.2,0.2,1.6c0,0,1,0.9,1,2.1C40.5,27.2,40.1,28,39.3,28.8z"/>
</g>
</svg>
