<?xml version="1.0" encoding="utf-8"?>
<!-- Generator: Adobe Illustrator 22.1.0, SVG Export Plug-In . SVG Version: 6.00 Build 0)  -->
<svg version="1.1" id="Layer_1" xmlns="http://www.w3.org/2000/svg" xmlns:xlink="http://www.w3.org/1999/xlink" x="0px" y="0px"
	 width="26px" height="41px" viewBox="0 0 26 41" style="enable-background:new 0 0 26 41;" xml:space="preserve">
<style type="text/css">
	.st0{fill:#ED2824;}
</style>
<g id="_x23_ed2824ff">
	<path class="st0" d="M19.1,0c1.5-0.2,3,0.3,4.2,1.3c1.5,1.2,2.4,3.2,2.4,5.2c0,0.7-0.6,1.3-1.2,1.3c-0.7,0-1.2-0.6-1.3-1.3
		c0-0.6-0.1-1.3-0.4-1.8c-0.6-1.3-2.1-2.2-3.5-1.9c-1.7,0.3-2.9,2-2.8,3.7c0,1.4,0.9,2.8,2.2,3.4c0.9,0.4,1.8,0.2,2.7,0.4
		c2.6,0.6,4.4,3.2,4.6,5.8c0,4.8,0.2,9.6,0.2,14.4c-0.1,1.1-1.2,2.1-2.3,2.1c-2.4,0-4.8,0-7.1,0c-1.2,0-2.3-1-2.4-2.2
		c0-4.4-0.1-8.7-0.1-13.1c0-3.7-0.1-7.4-0.2-11.2c0-1.6,0.6-3.1,1.7-4.3C16.5,0.8,17.8,0.2,19.1,0z"/>
	<path class="st0" d="M5.1,8.6c1.1-0.2,2.2-0.2,3.3,0.3c1.7,0.7,3,2.3,3.5,4.1c0.4,1.2,0.2,2.5,0.2,3.8C12,21.9,11.9,27,11.9,32.1
		c0,2.2,0,4.3,0,6.5c0,1.3-1.1,2.4-2.4,2.4c-2.4,0-4.8,0-7.1,0c-1.2,0-2.4-1.1-2.3-2.4c0-2,0-3.9,0-5.9c0.1-2.7,0.1-5.4,0.1-8.1
		c0.2-2.6,2-5.2,4.5-5.8c0.9-0.3,1.8,0,2.7-0.4c1.5-0.6,2.3-2.2,2.2-3.8c-0.1-1.3-0.9-2.5-2-3c-1-0.5-2.2-0.4-3,0.2
		c-1.1,0.7-1.7,1.9-1.7,3.2c0,0.6-0.5,1.3-1.1,1.3c-0.7,0.1-1.3-0.5-1.3-1.1C0.2,12.2,2.2,9.2,5.1,8.6z"/>
</g>
</svg>
