<?xml version="1.0" encoding="utf-8"?>
<!-- Generator: Adobe Illustrator 22.1.0, SVG Export Plug-In . SVG Version: 6.00 Build 0)  -->
<svg version="1.1" id="Capa_1" xmlns="http://www.w3.org/2000/svg" xmlns:xlink="http://www.w3.org/1999/xlink" x="0px" y="0px"
	 width="50px" height="50px" viewBox="0 0 50 50" style="enable-background:new 0 0 50 50;" xml:space="preserve">
<style type="text/css">
	.st0{fill:#ED2824;}
	.st1{fill:#FFFFFF;}
</style>
<circle class="st0" cx="25" cy="25" r="25"/>
<g>
	<path id="Facebook_Places" class="st1" d="M33.9,19c-0.1-0.3-0.3-0.7-0.4-1c-1.7-4-5.3-5.4-8.2-5.4c-3.9,0-8.3,2.6-8.8,8.1v1.1
		c0,0,0,0.5,0,0.7c0.3,2.6,2.4,5.3,3.9,7.9c1.6,2.8,3.3,5.5,5,8.2c1-1.8,2.1-3.6,3.1-5.3c0.3-0.5,0.6-1,0.9-1.5
		c0.2-0.3,0.5-0.6,0.7-0.9c1.6-3,4.3-6,4.3-9v-1.2C34.3,20.2,33.9,19,33.9,19z M25.3,24.5c-1.2,0-2.4-0.6-3-2.2
		c-0.1-0.3-0.1-0.8-0.1-0.8v-0.7c0-2,1.7-3,3.2-3c1.8,0,3.3,1.5,3.3,3.3C28.7,23.1,27.2,24.5,25.3,24.5z"/>
</g>
</svg>
