<?xml version="1.0" encoding="utf-8"?>
<!-- Generator: Adobe Illustrator 22.1.0, SVG Export Plug-In . SVG Version: 6.00 Build 0)  -->
<svg version="1.1" id="Capa_1" xmlns="http://www.w3.org/2000/svg" xmlns:xlink="http://www.w3.org/1999/xlink" x="0px" y="0px"
	 width="37px" height="37px" viewBox="0 0 37 37" style="enable-background:new 0 0 37 37;" xml:space="preserve">
<style type="text/css">
	.st0{fill:#FFB400;}
	.st1{fill:#FFFFFF;}
</style>
<path class="st0" d="M36.5,20.5L36,19.8c-0.6-0.8-0.6-2,0-2.8l0.6-0.8c0.9-1.2,0.5-2.8-0.9-3.5l-0.9-0.4c-0.9-0.5-1.4-1.5-1.3-2.5
	l0.2-0.9C33.9,7.3,32.8,6,31.4,6l-1,0c-1.1,0-2-0.7-2.3-1.7l-0.3-0.9c-0.4-1.4-2-2.1-3.3-1.5l-0.9,0.4c-1,0.4-2.1,0.2-2.8-0.6
	l-0.6-0.7c-1-1.1-2.7-1.1-3.7,0l-0.6,0.7c-0.7,0.8-1.8,1-2.8,0.6l-0.9-0.4C10.8,1.3,9.3,2,8.9,3.4L8.6,4.3C8.3,5.3,7.4,6,6.4,6.1
	l-1,0.1C3.9,6.2,2.9,7.6,3.2,9l0.2,0.9c0.2,1-0.3,2-1.2,2.5l-0.8,0.5c-1.3,0.7-1.7,2.4-0.8,3.5L1,17.2c0.6,0.8,0.6,2,0,2.8l-0.6,0.8
	c-0.9,1.2-0.5,2.8,0.9,3.5l0.9,0.4c0.9,0.5,1.4,1.5,1.3,2.5l-0.2,0.9C3.1,29.7,4.2,31,5.6,31l1,0c1.1,0,2,0.7,2.3,1.7l0.3,0.9
	c0.4,1.4,2,2.1,3.3,1.5l0.9-0.4c1-0.4,2.1-0.2,2.8,0.6l0.6,0.7c1,1.1,2.7,1.1,3.7,0l0.6-0.7c0.7-0.8,1.8-1,2.8-0.6l0.9,0.4
	c1.4,0.6,2.9-0.2,3.3-1.6l0.3-0.9c0.3-1,1.2-1.7,2.2-1.8l1-0.1c1.5-0.1,2.5-1.4,2.3-2.8l-0.2-0.9c-0.2-1,0.3-2,1.2-2.5l0.8-0.5
	C37,23.4,37.4,21.7,36.5,20.5z"/>
<g>
	<g>
		<path class="st1" d="M19.8,7.7c-0.9,0-0.6,1.9-0.6,1.9s-1.9,5.2-3.7,6.6c-0.4,0.4-0.6,0.9-0.8,1.2l0,0l0,0c0,0.1-0.1,0.2-0.1,0.3
			c-0.1,0.2-0.4,0.6-0.9,1l1.8,7.9c0,0,2.8,0.4,5.6,0.3c1.1,0.1,2.3,0.1,3.3-0.1c3.2-0.7,2.4-2.9,2.4-2.9c1.7-1.3,0.8-3,0.8-3
			c1.6-1.6,0-3,0-3s0.8-1.3-0.2-2.3c-1.4-1.2-5-0.4-5-0.4l0,0c-0.3,0-0.5,0.1-0.8,0.2c0,0-1.3,0.6,0-3.3C22.8,8.2,20.7,7.7,19.8,7.7
			z"/>
		<path class="st1" d="M14.1,26l-1.4-6.6c-0.1-0.4-0.5-0.7-0.8-0.7H9.3l0,7.9h4.3C14,26.7,14.2,26.4,14.1,26z"/>
	</g>
</g>
</svg>
