<?xml version="1.0" encoding="utf-8"?>
<!-- Generator: Adobe Illustrator 22.1.0, SVG Export Plug-In . SVG Version: 6.00 Build 0)  -->
<svg version="1.1" id="Capa_1" xmlns="http://www.w3.org/2000/svg" xmlns:xlink="http://www.w3.org/1999/xlink" x="0px" y="0px"
	 width="14px" height="14px" viewBox="0 0 14 14" style="enable-background:new 0 0 14 14;" xml:space="preserve">
<style type="text/css">
	.st0{fill:#FFFFFF;}
</style>
<g>
	<g>
		<path class="st0" d="M11.8,8.8c-0.5-0.5-1.1-0.5-1.6,0C9.8,9.1,9.4,9.5,9,9.9C8.9,10,8.8,10,8.7,10C8.4,9.8,8.2,9.7,7.9,9.6
			C6.8,8.9,5.9,8,5.1,7c-0.4-0.5-0.8-1-1-1.6C4,5.2,4,5.1,4.1,5c0.4-0.4,0.8-0.8,1.1-1.1c0.5-0.5,0.5-1.1,0-1.7
			C4.9,1.9,4.6,1.6,4.3,1.3C4,1,3.7,0.7,3.4,0.4c-0.5-0.5-1.1-0.5-1.6,0C1.4,0.8,1,1.1,0.6,1.5C0.2,1.9,0,2.3,0,2.8
			c-0.1,0.8,0.1,1.6,0.4,2.3C1,6.6,1.9,8,2.9,9.2c1.4,1.7,3.1,3,5.1,4c0.9,0.4,1.8,0.8,2.8,0.8c0.7,0,1.3-0.1,1.8-0.7
			c0.3-0.4,0.7-0.7,1-1.1c0.5-0.5,0.5-1.2,0-1.7C13,10,12.4,9.4,11.8,8.8z"/>
	</g>
</g>
</svg>
