<?xml version="1.0" encoding="utf-8"?>
<!-- Generator: Adobe Illustrator 22.1.0, SVG Export Plug-In . SVG Version: 6.00 Build 0)  -->
<svg version="1.1" id="Capa_1" xmlns="http://www.w3.org/2000/svg" xmlns:xlink="http://www.w3.org/1999/xlink" x="0px" y="0px"
	 width="36px" height="36px" viewBox="0 0 36 36" style="enable-background:new 0 0 36 36;" xml:space="preserve">
<style type="text/css">
	.st0{fill:#ED2824;}
</style>
<g>
	<g>
		<rect x="11.3" y="27" class="st0" width="11.2" height="2.3"/>
		<path class="st0" d="M9,2.3h18v4.5h2.2V2.3C29.3,1,28.2,0,27,0H9C7.8,0,6.8,1,6.8,2.3v4.5H9V2.3z"/>
		<rect x="11.3" y="22.5" class="st0" width="13.5" height="2.3"/>
		<path class="st0" d="M33.8,9H2.3C1,9,0,10,0,11.2v13.5C0,26,1,27,2.3,27h4.5v6.8C6.8,35,7.8,36,9,36h18c1.2,0,2.2-1,2.2-2.3V27
			h4.5c1.2,0,2.2-1,2.2-2.2V11.2C36,10,35,9,33.8,9z M27,33.8H9V20.2h18L27,33.8L27,33.8z M31.5,15.8c-1.2,0-2.2-1-2.2-2.3
			c0-1.2,1-2.3,2.2-2.3c1.2,0,2.3,1,2.3,2.3C33.8,14.7,32.7,15.8,31.5,15.8z"/>
	</g>
</g>
</svg>
