<?xml version="1.0" encoding="utf-8"?>
<!-- Generator: Adobe Illustrator 22.1.0, SVG Export Plug-In . SVG Version: 6.00 Build 0)  -->
<svg version="1.1" id="Capa_1" xmlns="http://www.w3.org/2000/svg" xmlns:xlink="http://www.w3.org/1999/xlink" x="0px" y="0px"
	 width="45px" height="44px" viewBox="0 0 45 44" style="enable-background:new 0 0 45 44;" xml:space="preserve">
<style type="text/css">
	.st0{fill:#ED2824;}
</style>
<g>
	<path class="st0" d="M44.6,0.4c-0.4-0.4-0.9-0.5-1.4-0.3L0.8,18.3C0.3,18.5,0,18.9,0,19.4s0.2,0.9,0.7,1.2l14.8,8.2l8.8,14.6
		c0.2,0.4,0.7,0.6,1.1,0.6c0,0,0,0,0.1,0c0.5,0,0.9-0.3,1.1-0.8L44.9,1.8C45.1,1.3,45,0.7,44.6,0.4z M37.9,5.1L16.2,26.2l-12-6.6
		L37.9,5.1z M25.2,39.9L18,28L39.8,6.8L25.2,39.9z"/>
</g>
</svg>
