<?xml version="1.0" encoding="utf-8"?>
<!-- Generator: Adobe Illustrator 22.1.0, SVG Export Plug-In . SVG Version: 6.00 Build 0)  -->
<svg version="1.1" id="Capa_1" xmlns="http://www.w3.org/2000/svg" xmlns:xlink="http://www.w3.org/1999/xlink" x="0px" y="0px"
	 width="43px" height="43px" viewBox="0 0 43 43" style="enable-background:new 0 0 43 43;" xml:space="preserve">
<style type="text/css">
	.st0{fill:#ED2824;}
</style>
<g>
	<g>
		<path class="st0" d="M41.9,36.5l-9.4-9.4c1.8-2.7,2.8-6,2.8-9.5C35.3,7.9,27.4,0,17.6,0S0,7.9,0,17.6s7.9,17.6,17.6,17.6
			c3.5,0,6.8-1,9.5-2.8l9.4,9.4c0.7,0.7,1.7,1.1,2.7,1.1c1,0,1.9-0.4,2.7-1.1C43.4,40.4,43.4,38,41.9,36.5z M17.6,32.8
			C9.3,32.8,2.5,26,2.5,17.6S9.3,2.5,17.6,2.5s15.1,6.8,15.1,15.1S26,32.8,17.6,32.8z M40.1,40.1c-0.5,0.5-1.3,0.5-1.8,0L29.2,31
			c0.6-0.6,1.2-1.1,1.8-1.8l9.2,9.2C40.6,38.8,40.6,39.6,40.1,40.1z"/>
	</g>
</g>
<g>
	<g>
		<path class="st0" d="M17.6,5C10.7,5,5,10.7,5,17.6s5.7,12.6,12.6,12.6s12.6-5.7,12.6-12.6S24.6,5,17.6,5z M17.6,27.7
			c-5.6,0-10.1-4.5-10.1-10.1S12.1,7.6,17.6,7.6s10.1,4.5,10.1,10.1S23.2,27.7,17.6,27.7z"/>
	</g>
</g>
</svg>
