<?xml version="1.0" encoding="utf-8"?>
<!-- Generator: Adobe Illustrator 22.1.0, SVG Export Plug-In . SVG Version: 6.00 Build 0)  -->
<svg version="1.1" id="Capa_1" xmlns="http://www.w3.org/2000/svg" xmlns:xlink="http://www.w3.org/1999/xlink" x="0px" y="0px"
	 width="41px" height="41px" viewBox="0 0 41 41" style="enable-background:new 0 0 41 41;" xml:space="preserve">
<style type="text/css">
	.st0{fill:#ED2824;}
</style>
<g>
	<g>
		<path class="st0" d="M35.4,21.5h-16v-16c0-0.6-0.5-1.2-1.2-1.2C8.2,4.4,0,12.6,0,22.7S8.2,41,18.3,41s18.3-8.2,18.3-18.3
			C36.6,22.1,36.1,21.5,35.4,21.5z M18.3,38.7c-8.8,0-16-7.2-16-16c0-8.4,6.5-15.3,14.8-15.9v15.9c0,0.6,0.5,1.2,1.2,1.2h15.9
			C33.6,32.1,26.7,38.7,18.3,38.7z"/>
		<path class="st0" d="M41,18.2c0-4.4-1.6-8.7-4.6-12.1C32.9,2.3,27.9,0,22.7,0c-0.6,0-1.2,0.5-1.2,1.2v17.1c0,0.6,0.5,1.2,1.2,1.2
			h17.1l0,0C40.5,19.5,41,18.9,41,18.2C41,18.3,41,18.3,41,18.2z M23.9,17.1V2.4c4.1,0.3,8,2.2,10.8,5.4c2.3,2.6,3.7,5.9,4,9.4
			L23.9,17.1L23.9,17.1z"/>
	</g>
</g>
</svg>
