<?xml version="1.0" encoding="utf-8"?>
<!-- Generator: Adobe Illustrator 22.1.0, SVG Export Plug-In . SVG Version: 6.00 Build 0)  -->
<svg version="1.1" id="Capa_1" xmlns="http://www.w3.org/2000/svg" xmlns:xlink="http://www.w3.org/1999/xlink" x="0px" y="0px"
	 width="34px" height="43px" viewBox="0 0 34 43" style="enable-background:new 0 0 34 43;" xml:space="preserve">
<style type="text/css">
	.st0{fill:#ED2824;}
</style>
<g>
	<g>
		<path class="st0" d="M23.1,7.5H3.4C1.5,7.5,0,9,0,10.9v28.7C0,41.5,1.5,43,3.4,43h19.7c1.9,0,3.4-1.5,3.4-3.4V10.9
			C26.4,9,24.9,7.5,23.1,7.5z M24.1,39.6c0,0.6-0.5,1-1,1H3.3c-0.6,0-1-0.5-1-1V10.9c0-0.6,0.5-1,1-1h19.7c0.6,0,1,0.5,1,1V39.6z"/>
		<path class="st0" d="M30.6,0H10.9C9.1,0,7.5,1.5,7.5,3.4c0,0.7,0.5,1.2,1.2,1.2s1.2-0.5,1.2-1.2c0-0.6,0.5-1,1-1h19.7
			c0.6,0,1,0.5,1,1v28.7c0,0.6-0.5,1-1,1c-0.7,0-1.2,0.5-1.2,1.2s0.5,1.2,1.2,1.2c1.9,0,3.4-1.5,3.4-3.4V3.4C34,1.5,32.5,0,30.6,0z"
			/>
	</g>
</g>
</svg>
